<svg width="203" height="134" viewBox="0 0 203 134" fill="none" xmlns="http://www.w3.org/2000/svg">
<rect width="203" height="134" rx="10" fill="white"/>
<path d="M27.952 46.984L22.352 50.44L22.096 49.448H37.104V53H19.664V49.448C21.6693 48.0827 23.376 46.8987 24.784 45.896C26.2133 44.8933 27.3973 44.04 28.336 43.336C29.2747 42.6107 30.0213 42.0027 30.576 41.512C31.1307 41 31.536 40.5627 31.792 40.2C32.0693 39.816 32.2507 39.4747 32.336 39.176C32.4213 38.856 32.464 38.536 32.464 38.216C32.464 37.6613 32.304 37.1707 31.984 36.744C31.6853 36.3173 31.2053 35.9867 30.544 35.752C29.904 35.5173 29.072 35.4 28.048 35.4C26.6613 35.4 25.5413 35.6667 24.688 36.2C23.8347 36.7333 23.3867 37.4373 23.344 38.312H19.312C19.248 37.096 19.5573 36.008 20.24 35.048C20.944 34.0667 21.9573 33.2987 23.28 32.744C24.6027 32.168 26.16 31.88 27.952 31.88C29.232 31.88 30.4053 32.008 31.472 32.264C32.56 32.52 33.4987 32.904 34.288 33.416C35.0773 33.9067 35.6853 34.536 36.112 35.304C36.5387 36.0507 36.752 36.936 36.752 37.96C36.752 38.8987 36.5067 39.784 36.016 40.616C35.5253 41.448 34.8533 42.2267 34 42.952C33.168 43.6773 32.2293 44.3813 31.184 45.064C30.1387 45.7253 29.0613 46.3653 27.952 46.984ZM51.698 31.88C54.0447 31.88 56.018 32.3387 57.618 33.256C59.218 34.152 60.4233 35.4107 61.234 37.032C62.0447 38.6533 62.45 40.5307 62.45 42.664C62.45 44.776 62.0447 46.6427 61.234 48.264C60.4233 49.8853 59.218 51.1547 57.618 52.072C56.018 52.968 54.0447 53.416 51.698 53.416C49.3513 53.416 47.378 52.968 45.778 52.072C44.178 51.1547 42.9727 49.8853 42.162 48.264C41.3513 46.6427 40.946 44.776 40.946 42.664C40.946 40.5307 41.3513 38.6533 42.162 37.032C42.9727 35.4107 44.178 34.152 45.778 33.256C47.378 32.3387 49.3513 31.88 51.698 31.88ZM51.698 49.864C52.5727 49.864 53.394 49.7147 54.162 49.416C54.93 49.096 55.602 48.6267 56.178 48.008C56.754 47.3893 57.202 46.632 57.522 45.736C57.842 44.84 58.002 43.816 58.002 42.664C58.002 41.512 57.842 40.488 57.522 39.592C57.202 38.696 56.754 37.9493 56.178 37.352C55.602 36.7333 54.93 36.2747 54.162 35.976C53.394 35.656 52.5727 35.496 51.698 35.496C50.8233 35.496 49.9913 35.656 49.202 35.976C48.434 36.2747 47.7513 36.7333 47.154 37.352C46.578 37.9493 46.1193 38.696 45.778 39.592C45.458 40.488 45.298 41.512 45.298 42.664C45.298 43.816 45.458 44.84 45.778 45.736C46.1193 46.632 46.578 47.3893 47.154 48.008C47.7513 48.6267 48.434 49.096 49.202 49.416C49.9913 49.7147 50.8233 49.864 51.698 49.864ZM76.3855 31.88C78.7322 31.88 80.7055 32.3387 82.3055 33.256C83.9055 34.152 85.1108 35.4107 85.9215 37.032C86.7322 38.6533 87.1375 40.5307 87.1375 42.664C87.1375 44.776 86.7322 46.6427 85.9215 48.264C85.1108 49.8853 83.9055 51.1547 82.3055 52.072C80.7055 52.968 78.7322 53.416 76.3855 53.416C74.0388 53.416 72.0655 52.968 70.4655 52.072C68.8655 51.1547 67.6602 49.8853 66.8495 48.264C66.0388 46.6427 65.6335 44.776 65.6335 42.664C65.6335 40.5307 66.0388 38.6533 66.8495 37.032C67.6602 35.4107 68.8655 34.152 70.4655 33.256C72.0655 32.3387 74.0388 31.88 76.3855 31.88ZM76.3855 49.864C77.2602 49.864 78.0815 49.7147 78.8495 49.416C79.6175 49.096 80.2895 48.6267 80.8655 48.008C81.4415 47.3893 81.8895 46.632 82.2095 45.736C82.5295 44.84 82.6895 43.816 82.6895 42.664C82.6895 41.512 82.5295 40.488 82.2095 39.592C81.8895 38.696 81.4415 37.9493 80.8655 37.352C80.2895 36.7333 79.6175 36.2747 78.8495 35.976C78.0815 35.656 77.2602 35.496 76.3855 35.496C75.5108 35.496 74.6788 35.656 73.8895 35.976C73.1215 36.2747 72.4388 36.7333 71.8415 37.352C71.2655 37.9493 70.8068 38.696 70.4655 39.592C70.1455 40.488 69.9855 41.512 69.9855 42.664C69.9855 43.816 70.1455 44.84 70.4655 45.736C70.8068 46.632 71.2655 47.3893 71.8415 48.008C72.4388 48.6267 73.1215 49.096 73.8895 49.416C74.6788 49.7147 75.5108 49.864 76.3855 49.864ZM101.073 31.88C103.42 31.88 105.393 32.3387 106.993 33.256C108.593 34.152 109.798 35.4107 110.609 37.032C111.42 38.6533 111.825 40.5307 111.825 42.664C111.825 44.776 111.42 46.6427 110.609 48.264C109.798 49.8853 108.593 51.1547 106.993 52.072C105.393 52.968 103.42 53.416 101.073 53.416C98.7263 53.416 96.753 52.968 95.153 52.072C93.553 51.1547 92.3477 49.8853 91.537 48.264C90.7263 46.6427 90.321 44.776 90.321 42.664C90.321 40.5307 90.7263 38.6533 91.537 37.032C92.3477 35.4107 93.553 34.152 95.153 33.256C96.753 32.3387 98.7263 31.88 101.073 31.88ZM101.073 49.864C101.948 49.864 102.769 49.7147 103.537 49.416C104.305 49.096 104.977 48.6267 105.553 48.008C106.129 47.3893 106.577 46.632 106.897 45.736C107.217 44.84 107.377 43.816 107.377 42.664C107.377 41.512 107.217 40.488 106.897 39.592C106.577 38.696 106.129 37.9493 105.553 37.352C104.977 36.7333 104.305 36.2747 103.537 35.976C102.769 35.656 101.948 35.496 101.073 35.496C100.198 35.496 99.3663 35.656 98.577 35.976C97.809 36.2747 97.1263 36.7333 96.529 37.352C95.953 37.9493 95.4943 38.696 95.153 39.592C94.833 40.488 94.673 41.512 94.673 42.664C94.673 43.816 94.833 44.84 95.153 45.736C95.4943 46.632 95.953 47.3893 96.529 48.008C97.1263 48.6267 97.809 49.096 98.577 49.416C99.3663 49.7147 100.198 49.864 101.073 49.864ZM114.913 42.824H129.633V45.864H114.913V42.824ZM124.001 38.312V50.408H120.545V38.312H124.001Z" fill="#FF8911"/>
<path d="M20.448 74.208H27.04V75.408H20.448V74.208ZM26.96 69.6H28.24V80H26.96V69.6ZM19.28 69.6H20.56V80H19.28V69.6ZM33.5796 80.16C32.9503 80.16 32.369 79.984 31.8356 79.632C31.313 79.2693 30.8916 78.7787 30.5716 78.16C30.2623 77.5307 30.1076 76.816 30.1076 76.016C30.1076 75.216 30.2676 74.5013 30.5876 73.872C30.9076 73.2427 31.3396 72.7467 31.8836 72.384C32.4383 72.0213 33.057 71.84 33.7396 71.84C34.4863 71.84 35.0516 72.032 35.4356 72.416C35.8303 72.7893 36.097 73.2907 36.2356 73.92C36.385 74.5493 36.4596 75.248 36.4596 76.016C36.4596 76.4213 36.417 76.864 36.3316 77.344C36.2463 77.8133 36.097 78.2667 35.8836 78.704C35.681 79.1307 35.393 79.4827 35.0196 79.76C34.6463 80.0267 34.1663 80.16 33.5796 80.16ZM33.8996 78.944C34.4436 78.944 34.8916 78.8107 35.2436 78.544C35.6063 78.2773 35.873 77.9253 36.0436 77.488C36.2143 77.04 36.2996 76.5493 36.2996 76.016C36.2996 75.4293 36.209 74.9173 36.0276 74.48C35.857 74.032 35.5903 73.6853 35.2276 73.44C34.8756 73.184 34.433 73.056 33.8996 73.056C33.0996 73.056 32.481 73.3387 32.0436 73.904C31.6063 74.4587 31.3876 75.1627 31.3876 76.016C31.3876 76.5813 31.4943 77.088 31.7076 77.536C31.9316 77.9733 32.2303 78.32 32.6036 78.576C32.9876 78.8213 33.4196 78.944 33.8996 78.944ZM36.2996 72H37.5796V80H36.4116C36.4116 80 36.401 79.904 36.3796 79.712C36.369 79.52 36.353 79.296 36.3316 79.04C36.3103 78.784 36.2996 78.5707 36.2996 78.4V72ZM43.665 80.16C43.0783 80.16 42.5983 80.0267 42.225 79.76C41.8517 79.4827 41.5583 79.1307 41.345 78.704C41.1423 78.2667 40.9983 77.8133 40.913 77.344C40.8277 76.864 40.785 76.4213 40.785 76.016C40.785 75.44 40.8223 74.9013 40.897 74.4C40.9823 73.8987 41.1263 73.456 41.329 73.072C41.5317 72.688 41.8197 72.3893 42.193 72.176C42.577 71.952 43.0677 71.84 43.665 71.84C44.305 71.84 44.8863 72.0213 45.409 72.384C45.9317 72.7467 46.3477 73.2427 46.657 73.872C46.977 74.5013 47.137 75.216 47.137 76.016C47.137 76.816 46.977 77.5307 46.657 78.16C46.337 78.7787 45.9103 79.2693 45.377 79.632C44.8543 79.984 44.2837 80.16 43.665 80.16ZM43.345 78.944C43.8357 78.944 44.2677 78.8213 44.641 78.576C45.025 78.32 45.3237 77.9733 45.537 77.536C45.7503 77.088 45.857 76.5813 45.857 76.016C45.857 75.1627 45.6383 74.4587 45.201 73.904C44.7637 73.3387 44.145 73.056 43.345 73.056C42.8757 73.056 42.4597 73.184 42.097 73.44C41.7343 73.6853 41.4517 74.032 41.249 74.48C41.0463 74.9173 40.945 75.4293 40.945 76.016C40.945 76.5493 41.0303 77.04 41.201 77.488C41.3823 77.9253 41.649 78.2773 42.001 78.544C42.353 78.8107 42.801 78.944 43.345 78.944ZM39.665 72H40.897L40.945 73.68V83.2H39.665V72ZM52.7744 80.16C52.1877 80.16 51.7077 80.0267 51.3344 79.76C50.961 79.4827 50.6677 79.1307 50.4544 78.704C50.2517 78.2667 50.1077 77.8133 50.0224 77.344C49.937 76.864 49.8944 76.4213 49.8944 76.016C49.8944 75.44 49.9317 74.9013 50.0064 74.4C50.0917 73.8987 50.2357 73.456 50.4384 73.072C50.641 72.688 50.929 72.3893 51.3024 72.176C51.6864 71.952 52.177 71.84 52.7744 71.84C53.4144 71.84 53.9957 72.0213 54.5184 72.384C55.041 72.7467 55.457 73.2427 55.7664 73.872C56.0864 74.5013 56.2464 75.216 56.2464 76.016C56.2464 76.816 56.0864 77.5307 55.7664 78.16C55.4464 78.7787 55.0197 79.2693 54.4864 79.632C53.9637 79.984 53.393 80.16 52.7744 80.16ZM52.4544 78.944C52.945 78.944 53.377 78.8213 53.7504 78.576C54.1344 78.32 54.433 77.9733 54.6464 77.536C54.8597 77.088 54.9664 76.5813 54.9664 76.016C54.9664 75.1627 54.7477 74.4587 54.3104 73.904C53.873 73.3387 53.2544 73.056 52.4544 73.056C51.985 73.056 51.569 73.184 51.2064 73.44C50.8437 73.6853 50.561 74.032 50.3584 74.48C50.1557 74.9173 50.0544 75.4293 50.0544 76.016C50.0544 76.5493 50.1397 77.04 50.3104 77.488C50.4917 77.9253 50.7584 78.2773 51.1104 78.544C51.4624 78.8107 51.9104 78.944 52.4544 78.944ZM48.7744 72H50.0064L50.0544 73.68V83.2H48.7744V72ZM57.1638 72H58.5398L61.4038 79.68L60.2838 80L57.1638 72ZM64.6038 72L60.1398 83.2H58.7478L60.6838 78.88L63.2438 72H64.6038ZM78.5053 76.528C78.3986 77.2747 78.1426 77.92 77.7373 78.464C77.3319 79.008 76.8146 79.4293 76.1853 79.728C75.5666 80.016 74.8733 80.16 74.1053 80.16C73.3906 80.16 72.7293 80.0373 72.1213 79.792C71.5133 79.536 70.9799 79.1733 70.5213 78.704C70.0733 78.2347 69.7213 77.6693 69.4653 77.008C69.2093 76.3467 69.0813 75.6107 69.0813 74.8C69.0813 73.9787 69.2093 73.2427 69.4653 72.592C69.7213 71.9307 70.0733 71.3653 70.5213 70.896C70.9799 70.4267 71.5133 70.0693 72.1213 69.824C72.7293 69.568 73.3906 69.44 74.1053 69.44C74.8839 69.44 75.5826 69.5893 76.2013 69.888C76.8306 70.176 77.3479 70.5973 77.7533 71.152C78.1586 71.696 78.4146 72.3467 78.5213 73.104H77.3373C77.1879 72.5707 76.9533 72.1227 76.6333 71.76C76.3239 71.3973 75.9506 71.12 75.5133 70.928C75.0759 70.736 74.6066 70.64 74.1053 70.64C73.4546 70.64 72.8413 70.8 72.2653 71.12C71.6999 71.44 71.2413 71.9093 70.8893 72.528C70.5373 73.1467 70.3613 73.904 70.3613 74.8C70.3613 75.696 70.5373 76.4533 70.8893 77.072C71.2413 77.6907 71.6999 78.16 72.2653 78.48C72.8413 78.8 73.4546 78.96 74.1053 78.96C74.6066 78.96 75.0706 78.8693 75.4973 78.688C75.9346 78.496 76.3079 78.2187 76.6173 77.856C76.9373 77.4933 77.1719 77.0507 77.3212 76.528H78.5053ZM80.5281 68.8H81.8081V80H80.5281V68.8ZM85.6396 68.8V70.352H83.9756V68.8H85.6396ZM84.1676 72H85.4476V80H84.1676V72ZM93.2978 77.424H94.4978C94.4124 77.9467 94.2204 78.416 93.9218 78.832C93.6338 79.2373 93.2498 79.5627 92.7698 79.808C92.3004 80.0427 91.7564 80.16 91.1378 80.16C90.3911 80.16 89.7191 79.984 89.1218 79.632C88.5244 79.2693 88.0498 78.7787 87.6978 78.16C87.3564 77.5307 87.1858 76.816 87.1858 76.016C87.1858 75.216 87.3511 74.5013 87.6818 73.872C88.0231 73.2427 88.4871 72.7467 89.0738 72.384C89.6604 72.0213 90.3218 71.84 91.0578 71.84C91.8364 71.84 92.4924 72.016 93.0258 72.368C93.5698 72.7093 93.9698 73.216 94.2258 73.888C94.4924 74.5493 94.5991 75.3653 94.5458 76.336H88.4658C88.5191 76.8587 88.6631 77.3173 88.8978 77.712C89.1324 78.1067 89.4418 78.416 89.8258 78.64C90.2098 78.8533 90.6471 78.96 91.1378 78.96C91.6818 78.96 92.1404 78.8213 92.5138 78.544C92.8978 78.256 93.1591 77.8827 93.2978 77.424ZM91.1058 73.04C90.4444 73.04 89.8898 73.232 89.4418 73.616C88.9938 74 88.6951 74.5227 88.5458 75.184H93.2338C93.1911 74.48 92.9618 73.9467 92.5458 73.584C92.1404 73.2213 91.6604 73.04 91.1058 73.04ZM96.1963 72H97.4763V80H96.1963V72ZM100.228 71.84C100.655 71.84 101.039 71.904 101.38 72.032C101.722 72.16 102.01 72.3467 102.244 72.592C102.479 72.8373 102.66 73.136 102.788 73.488C102.916 73.8293 102.98 74.2187 102.98 74.656V80H101.7V74.976C101.7 74.3573 101.556 73.8933 101.268 73.584C100.98 73.2747 100.548 73.12 99.9723 73.12C99.5349 73.12 99.1296 73.232 98.7563 73.456C98.3829 73.68 98.0736 73.9893 97.8283 74.384C97.5936 74.768 97.4496 75.216 97.3963 75.728L97.3803 74.8C97.4336 74.352 97.5403 73.9467 97.7003 73.584C97.8709 73.2213 98.0789 72.912 98.3243 72.656C98.5803 72.3893 98.8683 72.1867 99.1883 72.048C99.5189 71.9093 99.8656 71.84 100.228 71.84ZM104.496 72H109.2V73.2H104.496V72ZM106.208 69.92H107.488V80H106.208V69.92ZM110.328 77.424H111.512C111.544 77.8827 111.715 78.256 112.024 78.544C112.344 78.832 112.803 78.976 113.4 78.976C113.763 78.976 114.045 78.928 114.248 78.832C114.461 78.736 114.616 78.608 114.712 78.448C114.808 78.2773 114.856 78.0907 114.856 77.888C114.856 77.6427 114.792 77.4507 114.664 77.312C114.547 77.1627 114.381 77.04 114.168 76.944C113.965 76.848 113.731 76.7573 113.464 76.672C113.155 76.5547 112.835 76.432 112.504 76.304C112.184 76.1653 111.88 76.0053 111.592 75.824C111.315 75.632 111.091 75.4027 110.92 75.136C110.749 74.8587 110.664 74.528 110.664 74.144C110.664 73.824 110.728 73.5253 110.856 73.248C110.984 72.96 111.165 72.7147 111.4 72.512C111.645 72.2987 111.928 72.1333 112.248 72.016C112.579 71.8987 112.941 71.84 113.336 71.84C113.869 71.84 114.317 71.9467 114.68 72.16C115.053 72.3733 115.336 72.6773 115.528 73.072C115.731 73.456 115.837 73.904 115.848 74.416H114.744C114.669 73.936 114.515 73.5893 114.28 73.376C114.056 73.152 113.731 73.04 113.304 73.04C112.867 73.04 112.531 73.136 112.296 73.328C112.061 73.52 111.944 73.776 111.944 74.096C111.944 74.3307 112.029 74.528 112.2 74.688C112.371 74.8373 112.589 74.976 112.856 75.104C113.133 75.2213 113.427 75.344 113.736 75.472C114.045 75.6 114.344 75.728 114.632 75.856C114.92 75.984 115.176 76.1333 115.4 76.304C115.624 76.4747 115.8 76.688 115.928 76.944C116.067 77.1893 116.136 77.4987 116.136 77.872C116.136 78.32 116.029 78.72 115.816 79.072C115.613 79.4133 115.309 79.68 114.904 79.872C114.509 80.064 114.024 80.16 113.448 80.16C112.925 80.16 112.477 80.096 112.104 79.968C111.741 79.8293 111.437 79.6533 111.192 79.44C110.947 79.216 110.755 78.9813 110.616 78.736C110.488 78.4907 110.403 78.2507 110.36 78.016C110.317 77.7813 110.307 77.584 110.328 77.424Z" fill="#1A1D27"/>
<path d="M29.0633 89.5049C29.3873 88.6386 30.6127 88.6386 30.9367 89.5049L32.7306 94.3026C32.8712 94.6785 33.2228 94.9339 33.6236 94.9514L38.7409 95.175C39.6649 95.2154 40.0436 96.3809 39.3198 96.9567L35.3113 100.145C34.9972 100.395 34.8629 100.809 34.9702 101.195L36.3388 106.131C36.586 107.022 35.5946 107.743 34.8233 107.232L30.5519 104.405C30.2173 104.184 29.7827 104.184 29.4481 104.405L25.1767 107.232C24.4054 107.743 23.414 107.022 23.6612 106.131L25.0298 101.195C25.137 100.809 25.0028 100.395 24.6887 100.145L20.6802 96.9567C19.9564 96.3809 20.3351 95.2154 21.2591 95.175L26.3764 94.9514C26.7772 94.9339 27.1288 94.6785 27.2694 94.3026L29.0633 89.5049Z" fill="#FFD600"/>
<path d="M54.4 95.92V106.32H53.12V97.504L53.424 97.6L49.824 103.28L49.552 102.8H53.376V104H48.72V102.8L53.12 95.92H54.4ZM54.144 104V102.8H55.872V104H54.144ZM59.2978 102.432V104H57.6338V102.432H59.2978ZM64.0558 102.72C63.5118 102.72 62.9998 102.581 62.5198 102.304C62.0398 102.016 61.6504 101.611 61.3518 101.088C61.0638 100.565 60.9251 99.952 60.9358 99.248C60.9464 98.544 61.1064 97.9413 61.4158 97.44C61.7358 96.928 62.1571 96.5333 62.6798 96.256C63.2024 95.9787 63.7731 95.84 64.3918 95.84C65.0211 95.84 65.5918 95.9787 66.1038 96.256C66.6158 96.5333 67.0211 96.928 67.3198 97.44C67.6184 97.9413 67.7624 98.544 67.7518 99.248C67.7411 99.4933 67.7091 99.76 67.6558 100.048C67.6024 100.325 67.5064 100.635 67.3678 100.976C67.3464 101.04 67.2824 101.184 67.1758 101.408C67.0691 101.632 66.9358 101.909 66.7758 102.24C66.6264 102.571 66.4611 102.923 66.2798 103.296C66.1091 103.669 65.9384 104.037 65.7678 104.4C65.5971 104.773 65.4371 105.109 65.2878 105.408C65.1491 105.707 65.0371 105.947 64.9518 106.128C64.8664 106.309 64.8238 106.4 64.8238 106.4H63.4478L66.6798 99.904L67.1438 99.488C66.9091 99.968 66.6798 100.411 66.4558 100.816C66.2318 101.211 65.9971 101.552 65.7518 101.84C65.5171 102.117 65.2611 102.336 64.9838 102.496C64.7064 102.645 64.3971 102.72 64.0558 102.72ZM64.3918 97.072C63.8158 97.072 63.3144 97.264 62.8878 97.648C62.4611 98.0213 62.2371 98.5653 62.2158 99.28C62.2051 99.9627 62.4024 100.501 62.8078 100.896C63.2131 101.291 63.7091 101.488 64.2958 101.488C64.9571 101.488 65.4798 101.269 65.8638 100.832C66.2584 100.395 66.4611 99.8667 66.4718 99.248C66.4824 98.7787 66.3918 98.384 66.1998 98.064C66.0078 97.744 65.7518 97.4987 65.4318 97.328C65.1224 97.1573 64.7758 97.072 64.3918 97.072ZM75.6738 105.392L74.6178 106.128C74.6178 106.128 74.5431 106.032 74.3938 105.84C74.2444 105.648 74.0578 105.365 73.8338 104.992C73.6204 104.619 73.4018 104.165 73.1778 103.632C72.9538 103.088 72.7671 102.464 72.6178 101.76C72.4684 101.056 72.3938 100.277 72.3938 99.424C72.3938 98.5707 72.4684 97.792 72.6178 97.088C72.7671 96.384 72.9538 95.7653 73.1778 95.232C73.4018 94.688 73.6204 94.2293 73.8338 93.856C74.0578 93.4827 74.2444 93.2 74.3938 93.008C74.5431 92.816 74.6178 92.72 74.6178 92.72L75.6738 93.456C75.6738 93.456 75.5724 93.5893 75.3698 93.856C75.1671 94.112 74.9324 94.496 74.6658 95.008C74.4098 95.5093 74.1804 96.1333 73.9778 96.88C73.7751 97.616 73.6738 98.464 73.6738 99.424C73.6738 100.192 73.7378 100.891 73.8658 101.52C74.0044 102.149 74.1751 102.704 74.3778 103.184C74.5804 103.664 74.7778 104.069 74.9698 104.4C75.1724 104.731 75.3378 104.976 75.4658 105.136C75.6044 105.307 75.6738 105.392 75.6738 105.392ZM77.7488 104V93.6H82.3408C83.0661 93.6 83.6848 93.712 84.1968 93.936C84.7088 94.1493 85.0981 94.4747 85.3648 94.912C85.6421 95.3493 85.7808 95.8987 85.7808 96.56C85.7808 97.008 85.7061 97.392 85.5568 97.712C85.4181 98.032 85.2208 98.304 84.9648 98.528C84.7088 98.7413 84.4048 98.9067 84.0528 99.024C83.7114 99.1413 83.3381 99.216 82.9328 99.248L82.8848 99.168C83.4501 99.1893 83.9354 99.2587 84.3408 99.376C84.7461 99.4933 85.0608 99.7067 85.2847 100.016C85.5088 100.325 85.6208 100.789 85.6208 101.408V104H84.3408V101.408C84.3408 100.981 84.2661 100.651 84.1168 100.416C83.9781 100.171 83.7381 100 83.3968 99.904C83.0661 99.7973 82.6074 99.744 82.0208 99.744H79.0288V104H77.7488ZM79.0288 98.544H82.3408C83.0661 98.544 83.6048 98.3627 83.9568 98C84.3194 97.6267 84.5008 97.1467 84.5008 96.56C84.5008 95.9947 84.3194 95.5627 83.9568 95.264C83.6048 94.9547 83.0661 94.8 82.3408 94.8H79.0288V98.544ZM93.4384 101.424H94.6384C94.553 101.947 94.361 102.416 94.0624 102.832C93.7744 103.237 93.3904 103.563 92.9104 103.808C92.441 104.043 91.897 104.16 91.2784 104.16C90.5317 104.16 89.8597 103.984 89.2624 103.632C88.665 103.269 88.1904 102.779 87.8384 102.16C87.497 101.531 87.3264 100.816 87.3264 100.016C87.3264 99.216 87.4917 98.5013 87.8224 97.872C88.1637 97.2427 88.6277 96.7467 89.2144 96.384C89.801 96.0213 90.4624 95.84 91.1984 95.84C91.977 95.84 92.633 96.016 93.1664 96.368C93.7104 96.7093 94.1104 97.216 94.3664 97.888C94.633 98.5493 94.7397 99.3653 94.6864 100.336H88.6064C88.6597 100.859 88.8037 101.317 89.0384 101.712C89.273 102.107 89.5824 102.416 89.9664 102.64C90.3504 102.853 90.7877 102.96 91.2784 102.96C91.8224 102.96 92.281 102.821 92.6544 102.544C93.0384 102.256 93.2997 101.883 93.4384 101.424ZM91.2464 97.04C90.585 97.04 90.0304 97.232 89.5824 97.616C89.1344 98 88.8357 98.5227 88.6864 99.184H93.3744C93.3317 98.48 93.1024 97.9467 92.6864 97.584C92.281 97.2213 91.801 97.04 91.2464 97.04ZM99.1905 102.896H98.8065L101.255 96H102.647L99.6065 104H98.4065L95.3825 96H96.7745L99.1905 102.896ZM105.593 92.8V94.352H103.929V92.8H105.593ZM104.121 96H105.401V104H104.121V96ZM113.251 101.424H114.451C114.366 101.947 114.174 102.416 113.875 102.832C113.587 103.237 113.203 103.563 112.723 103.808C112.254 104.043 111.71 104.16 111.091 104.16C110.344 104.16 109.672 103.984 109.075 103.632C108.478 103.269 108.003 102.779 107.651 102.16C107.31 101.531 107.139 100.816 107.139 100.016C107.139 99.216 107.304 98.5013 107.635 97.872C107.976 97.2427 108.44 96.7467 109.027 96.384C109.614 96.0213 110.275 95.84 111.011 95.84C111.79 95.84 112.446 96.016 112.979 96.368C113.523 96.7093 113.923 97.216 114.179 97.888C114.446 98.5493 114.552 99.3653 114.499 100.336H108.419C108.472 100.859 108.616 101.317 108.851 101.712C109.086 102.107 109.395 102.416 109.779 102.64C110.163 102.853 110.6 102.96 111.091 102.96C111.635 102.96 112.094 102.821 112.467 102.544C112.851 102.256 113.112 101.883 113.251 101.424ZM111.059 97.04C110.398 97.04 109.843 97.232 109.395 97.616C108.947 98 108.648 98.5227 108.499 99.184H113.187C113.144 98.48 112.915 97.9467 112.499 97.584C112.094 97.2213 111.614 97.04 111.059 97.04ZM123.947 102.832L123.627 102.816L125.499 96H126.891L124.443 104H123.243L120.875 96.992H121.195L118.827 104H117.627L115.195 96H116.587L118.427 102.816L118.107 102.832L120.267 96H121.819L123.947 102.832ZM128.019 105.392C128.019 105.392 128.083 105.307 128.211 105.136C128.349 104.976 128.52 104.731 128.723 104.4C128.925 104.069 129.123 103.664 129.315 103.184C129.517 102.704 129.683 102.149 129.811 101.52C129.949 100.891 130.019 100.192 130.019 99.424C130.019 98.464 129.917 97.616 129.715 96.88C129.512 96.1333 129.277 95.5093 129.011 95.008C128.755 94.496 128.525 94.112 128.323 93.856C128.12 93.5893 128.019 93.456 128.019 93.456L129.075 92.72C129.075 92.72 129.149 92.816 129.299 93.008C129.448 93.2 129.635 93.4827 129.859 93.856C130.083 94.2293 130.301 94.688 130.515 95.232C130.739 95.7653 130.925 96.384 131.075 97.088C131.224 97.792 131.299 98.5707 131.299 99.424C131.299 100.277 131.224 101.056 131.075 101.76C130.925 102.464 130.739 103.088 130.515 103.632C130.291 104.165 130.067 104.619 129.843 104.992C129.629 105.365 129.448 105.648 129.299 105.84C129.149 106.032 129.075 106.128 129.075 106.128L128.019 105.392Z" fill="#1A1D27"/>
</svg>
